<svg width="20" height="20" viewBox="0 0 20 20" fill="none" xmlns="http://www.w3.org/2000/svg">
<path d="M5.90583 12.341C5.38426 12.341 4.84351 12.3524 4.38522 12.3296C3.53967 12.3232 2.71163 12.0903 1.98886 11.6556C1.26609 11.2209 0.675534 10.6006 0.27976 9.86053C-0.247565 9.03244 -0.032804 8.65449 0.952814 8.56712C2.35646 8.45127 5.36316 8.33731 6.57888 8.24614L2.84926 2.41536C2.82992 2.38409 2.81863 2.34861 2.81636 2.31201C2.81409 2.27541 2.82092 2.23883 2.83626 2.20545C2.85159 2.17208 2.87495 2.14295 2.9043 2.1206C2.93365 2.09825 2.96808 2.08338 3.00459 2.07728C3.69527 1.94237 4.40852 1.97318 5.08472 2.16713C5.76093 2.36109 6.38043 2.71256 6.89145 3.19216C7.94868 4.35326 8.92323 5.5857 9.80804 6.88056C10.8473 5.57006 12.7783 2.51222 13.9135 0.911127C14.4178 0.198898 14.9873 0.176106 15.4475 0.808566C16.0036 1.54585 16.4505 2.3581 16.7745 3.22065C16.8467 3.73274 16.7229 4.25307 16.4274 4.6793C15.7658 5.77708 15.0007 6.81599 14.1417 8.07521C14.8895 8.16637 15.2788 8.19106 15.9058 8.28793C16.6351 8.36339 17.3421 8.58096 17.9861 8.9281C18.6301 9.27524 19.1985 9.74511 19.6584 10.3107C19.7955 10.4842 19.8947 10.6841 19.9498 10.8975C20.005 11.111 20.0148 11.3335 19.9787 11.5509C19.902 11.7921 19.2769 11.9706 18.8876 11.9991C17.484 12.1017 14.2587 12.1074 13.3267 12.0903C13.7428 12.7455 14.1493 13.4198 14.4619 13.9231C15.1752 15.0437 15.8943 16.1699 16.6153 17.2886C17.0563 17.9723 16.8531 18.3978 16.0937 18.6181C15.4363 18.8215 14.7296 18.8055 14.0822 18.5725C13.4467 18.31 12.9078 17.8605 12.5386 17.2848C11.8483 16.2687 10.5597 14.2061 10.2011 13.7465C9.17524 15.2507 7.99212 17.0208 7.00075 18.5307C6.00938 20.0407 5.30181 20.0179 4.35646 18.4567C3.90668 17.9134 3.66087 17.2325 3.66087 16.5298C3.66087 15.8272 3.90668 15.1463 4.35646 14.603C4.86844 13.9155 5.90583 12.341 5.90583 12.341Z" fill="#8C6AFF"/>
</svg>
